<svg width="208" height="208" viewBox="0 0 208 208" fill="none" xmlns="http://www.w3.org/2000/svg">
<rect x="0.371429" y="0.371429" width="207.257" height="207.257" rx="73.9143" fill="#99B4F9" stroke="#5582F5" stroke-width="0.742857" stroke-dasharray="2.97 2.97"/>
<rect x="30.0857" y="53.8571" width="147.829" height="147.829" rx="73.9143" fill="#BBCDFB" stroke="#779BF7" stroke-width="0.742857" stroke-dasharray="2.97 2.97"/>
<rect x="59.8" y="107.343" width="88.4" height="88.4" rx="44.2" fill="#EEF3FE" stroke="#99B4F9" stroke-width="0.742857" stroke-dasharray="2.97 2.97"/>
<path d="M83.3433 35.764H85.5393V19.546H83.3433V35.764ZM78.1053 20.896H75.8913V24.784C75.8913 26.458 74.1453 28.744 71.8233 30.184L72.9753 31.768C74.5773 30.67 75.9453 29.32 77.0073 27.736C77.9613 29.104 79.2753 30.346 80.9853 31.444L82.1013 29.824C79.7613 28.384 78.1053 26.332 78.1053 24.748V20.896ZM101.41 21.238H90.6816V23.02H99.2136V23.74C99.2136 25.954 98.8716 28.348 98.1876 30.958L100.33 31.498C101.068 28.384 101.41 25.954 101.41 23.866V21.238ZM88.3956 32.848V34.63H103.876V32.848H88.3956ZM116.812 35.764H119.008V19.546H116.812V35.764ZM108.46 29.338V21.094H106.282V31.12C109.828 31.156 112.276 30.958 115.624 30.292L115.246 28.528C112.546 29.158 110.188 29.338 108.55 29.338H108.46ZM133.546 25.99H130.612V27.772H133.546V35.764H135.742V19.546H133.546V25.99ZM129.91 20.122H127.678C125.77 20.122 124.906 19.996 124.078 19.726V21.436C125.068 21.832 126.346 21.886 127.678 21.886H129.91V20.122ZM128.128 24.766H131.512V23.002H122.548V24.766H125.932V25.144C125.932 26.782 124.168 28.978 121.792 30.418L122.962 32.002C124.6 30.958 125.986 29.608 127.048 27.97C128.002 29.356 129.352 30.634 131.098 31.714L132.16 30.112C129.658 28.6 128.128 26.71 128.128 25.108V24.766Z" fill="white"/>
<path d="M64.7021 74.058V75.858H76.3841V74.058H64.7021ZM73.9901 80.664L74.3141 76.47L72.2081 76.362L71.9021 80.664H69.1301L68.8601 76.362L66.7541 76.47L67.0421 80.664H64.5221V82.446H76.5641V80.664H73.9901ZM62.7941 87.63H78.2741V85.848H62.7941V87.63ZM92.1104 88.764H94.2164V72.546H92.1104V88.764ZM86.9624 77.982V79.764H88.7444V88.188H90.8144V72.726H88.7444V77.982H86.9624ZM82.5524 82.23V79.764H86.2424V74.058H80.4104V75.822H84.1004V78H80.4104V84.012C83.4884 84.012 85.4324 83.814 87.6644 83.418L87.3764 81.708C85.7564 82.05 83.9024 82.23 82.7864 82.23H82.5524ZM98.2788 82.842C100.547 82.104 102.743 80.592 104.021 79.044C105.353 80.556 107.477 81.924 109.745 82.59L110.465 80.898C107.711 80.07 105.101 77.946 105.101 76.398V73.86H102.905V76.398C102.905 77.946 100.295 80.268 97.5228 81.15L98.2788 82.842ZM96.2628 85.83V87.612H111.743V85.83H96.2628ZM124.679 88.764H126.875V72.546H124.679V88.764ZM116.345 82.23V79.728H121.277V77.964H116.345V75.858H121.637V74.076H114.149V84.03C117.605 84.066 119.963 83.868 123.113 83.238L122.753 81.492C120.215 82.068 118.001 82.23 116.453 82.23H116.345ZM141.414 88.764H143.61V72.546H141.414V88.764ZM136.122 75.948H139.452V74.166H130.596V75.948H133.926V78.018C133.926 79.674 132.252 81.78 129.858 83.274L130.992 84.84C132.558 83.832 133.908 82.554 135.024 80.88C135.978 82.266 137.346 83.526 138.966 84.516L140.136 82.95C137.724 81.474 136.122 79.584 136.122 77.982V75.948Z" fill="white"/>
<path d="M82.8984 135.906V132.9H91.2504V131.928H82.8984V128.94H91.7904V127.932H81.7104V136.896H92.2044V135.906H82.8984ZM79.0284 141.27H94.5084V140.262H79.0284V141.27ZM108.777 132.45V138.606H109.947V126.564H108.777V131.442H106.293V126.744H105.123V138.336H106.293V132.45H108.777ZM103.737 134.286C101.721 134.646 99.7768 134.79 98.4988 134.79H97.9768V132.216H102.513V127.932H96.7888V128.94H101.325V131.208H96.7888V135.798C99.4708 135.798 101.595 135.636 103.881 135.24L103.737 134.286ZM100.893 137.616H99.7048V143.106H110.613V142.098H100.893V137.616ZM124.683 142.746H125.871V126.564H124.683V142.746ZM115.071 136.824V129.21H120.975V128.202H113.883V137.832C117.213 137.832 119.769 137.616 122.685 137.04L122.487 136.068C120.111 136.608 117.195 136.824 115.665 136.824H115.071Z" fill="#5582F5"/>
</svg>
