<svg width="26" height="8" viewBox="0 0 26 8" fill="none" xmlns="http://www.w3.org/2000/svg">
<path d="M15.0855 6.78237C15.0855 6.84221 15.1002 6.8766 15.1291 6.8766C15.152 6.87428 15.1739 6.86363 15.192 6.84598L23.2955 0.255352C23.432 0.135224 23.5956 0.07298 23.7623 0.0777364H25.5434C25.8176 0.0777364 26 0.306705 26 0.649687V4.91011C26 5.42458 25.909 5.72186 25.5437 5.997L23.3836 7.6224C23.3623 7.6418 23.3372 7.65353 23.311 7.65632C23.2846 7.65632 23.2606 7.63088 23.2606 7.53854V2.56577C23.2606 2.51206 23.2459 2.47154 23.2166 2.47154C23.1939 2.47357 23.1723 2.48371 23.1541 2.50075L17.2299 7.31946C17.0966 7.43583 16.9376 7.4971 16.7751 7.49472H12.8479C12.5736 7.49472 12.3912 7.26575 12.3912 6.92277V0.784901C12.3912 0.737788 12.375 0.698685 12.3476 0.698685C12.3246 0.701041 12.3026 0.711314 12.284 0.728366L8.37666 3.66774C8.33905 3.69742 8.32701 3.72145 8.32701 3.74501C8.32701 3.76856 8.33378 3.78599 8.36162 3.82039L11.1522 7.31569C11.1898 7.36281 11.2146 7.39814 11.2146 7.43442C11.2146 7.47069 11.174 7.49472 11.1263 7.49472H8.60084C8.40299 7.49472 8.25028 7.45656 8.14383 7.32323L6.4512 5.20315C6.44531 5.19363 6.43794 5.18571 6.42954 5.17988C6.42113 5.17405 6.41186 5.17042 6.4023 5.16923C6.38358 5.1712 6.36558 5.17915 6.35001 5.19231L3.5188 7.32276C3.34766 7.45138 3.22917 7.49378 3.06179 7.49378H0.456635C0.182805 7.49378 0 7.26481 0 6.92183V2.74291C0 2.22844 0.0921546 1.93304 0.457011 1.65932L2.63036 0.0235565C2.64784 0.00879061 2.66833 0.00061515 2.68941 0C2.72213 0 2.74019 0.0433438 2.74019 0.13757V5.72469C2.74019 5.78358 2.75298 5.81091 2.78344 5.81091C2.80699 5.80681 2.82928 5.79512 2.84814 5.77698L10.1923 0.249227C10.3672 0.11684 10.4752 0.0777364 10.6768 0.0777364H14.6289C14.9027 0.0777364 15.0855 0.306705 15.0855 0.649687V6.78237Z" fill="white"/>
</svg>
