<svg width="72" height="22" viewBox="0 0 72 22" fill="none" xmlns="http://www.w3.org/2000/svg">
<path d="M41.7753 18.782C41.7753 18.9477 41.8159 19.0429 41.8961 19.0429C41.9594 19.0365 42.0199 19.007 42.0701 18.9581L64.5107 0.707128C64.8886 0.374466 65.3416 0.202098 65.8034 0.21527H70.7355C71.4948 0.21527 72 0.849337 72 1.79913V13.5972C72 15.0219 71.7479 15.8452 70.7365 16.6071L64.7545 21.1082C64.6956 21.1619 64.6261 21.1944 64.5535 21.2021C64.4805 21.2021 64.4139 21.1317 64.4139 20.8759V7.10521C64.4139 6.95647 64.3732 6.84427 64.292 6.84427C64.2294 6.84988 64.1693 6.87797 64.1191 6.92516L47.7136 20.2693C47.3444 20.5915 46.9041 20.7612 46.4542 20.7546H35.5787C34.8193 20.7546 34.3141 20.1205 34.3141 19.1707V2.17357C34.3141 2.04311 34.2693 1.93482 34.1933 1.93482C34.1297 1.94135 34.0688 1.96979 34.0173 2.01701L23.1969 10.1568C23.0928 10.239 23.0594 10.3055 23.0594 10.3708C23.0594 10.436 23.0782 10.4843 23.1552 10.5795L30.883 20.2588C30.9872 20.3893 31.0559 20.4872 31.0559 20.5876C31.0559 20.6881 30.9434 20.7546 30.8112 20.7546H23.8177C23.2698 20.7546 22.8469 20.6489 22.5521 20.2797L17.8648 14.4087C17.8486 14.3824 17.8282 14.3604 17.8049 14.3443C17.7816 14.3281 17.7559 14.3181 17.7294 14.3148C17.6776 14.3202 17.6278 14.3422 17.5847 14.3787L9.74437 20.2784C9.27043 20.6346 8.94232 20.752 8.4788 20.752H1.26453C0.506228 20.752 0 20.1179 0 19.1681V7.59576C0 6.17107 0.255197 5.35304 1.26557 4.59503L7.28406 0.0652333C7.33247 0.0243432 7.38922 0.00170349 7.44759 0C7.53821 0 7.58821 0.120029 7.58821 0.380962V15.853C7.58821 16.0161 7.62363 16.0917 7.708 16.0917C7.7732 16.0804 7.83494 16.048 7.88716 15.9978L28.2248 0.690168C28.7092 0.323557 29.0081 0.21527 29.5664 0.21527H40.5107C41.269 0.21527 41.7753 0.849337 41.7753 1.79913V18.782Z" fill="white"/>
</svg>
