<svg width="26" height="28" viewBox="0 0 26 28" fill="none" xmlns="http://www.w3.org/2000/svg">
<path d="M26 21.4342H23.8248V25.3687H2.17521V21.4342H0V27.8146H26V21.4342Z" fill="white"/>
<path d="M17.5187 17.253L25.8045 8.93894C25.8392 8.90596 25.8671 8.86488 25.8862 8.81856C25.9053 8.77224 25.9152 8.7218 25.9152 8.67074C25.9152 8.61969 25.9053 8.56924 25.8862 8.52293C25.8671 8.47661 25.8392 8.43553 25.8045 8.40255L17.5187 0.7509C17.4731 0.708942 17.4179 0.682305 17.3595 0.674078C17.3011 0.665852 17.2418 0.676361 17.1884 0.704394C17.1351 0.732427 17.0899 0.776856 17.058 0.832534C17.0261 0.888212 17.0089 0.952883 17.0083 1.0191V5.13591C17.0083 5.13591 5.03979 5.37997 5.03979 17.7733C5.03979 17.7733 5.99384 11.2132 17.0083 12.6776V16.9983C17.011 17.0633 17.0298 17.1263 17.0625 17.18C17.0953 17.2338 17.1406 17.2762 17.1936 17.3027C17.2465 17.3291 17.305 17.3385 17.3624 17.3297C17.4198 17.3209 17.4739 17.2944 17.5187 17.253Z" fill="white"/>
</svg>
