<svg width="15" height="34" viewBox="0 0 15 34" fill="none" xmlns="http://www.w3.org/2000/svg">
<path d="M7.33134 29.4559C7.21476 29.4566 7.10151 29.4205 7.01084 29.3539L2.20341 25.8222C2.1508 25.7839 2.107 25.7366 2.0745 25.6829C2.042 25.6292 2.02144 25.5702 2.014 25.5093C2.00656 25.4484 2.01238 25.3867 2.03114 25.3279C2.04989 25.269 2.0812 25.2141 2.12329 25.1662C2.16538 25.1183 2.21741 25.0785 2.27643 25.0489C2.33545 25.0194 2.40029 25.0007 2.46725 24.9939C2.53421 24.9871 2.60198 24.9924 2.6667 25.0095C2.73141 25.0265 2.79179 25.055 2.8444 25.0933L7.33134 28.399L11.8103 25.1006C11.9165 25.0237 12.052 24.9884 12.1868 25.0025C12.3217 25.0165 12.4449 25.0786 12.5294 25.1753C12.6138 25.272 12.6526 25.3952 12.6372 25.5179C12.6218 25.6406 12.5535 25.7527 12.4472 25.8295L7.63981 29.3612C7.55131 29.4229 7.44285 29.4562 7.33134 29.4559Z" fill="white"/>
<path d="M7.33134 33.9245C7.21476 33.9252 7.10151 33.8891 7.01084 33.8224L2.20341 30.2907C2.1508 30.2525 2.107 30.2051 2.0745 30.1514C2.042 30.0977 2.02144 30.0387 2.014 29.9778C2.00656 29.9169 2.01238 29.8552 2.03114 29.7964C2.04989 29.7375 2.0812 29.6826 2.12329 29.6347C2.16538 29.5868 2.21741 29.547 2.27643 29.5174C2.33545 29.4879 2.40029 29.4692 2.46725 29.4624C2.53421 29.4556 2.60198 29.4609 2.6667 29.478C2.73141 29.495 2.79179 29.5235 2.8444 29.5618L7.33134 32.8675L11.8103 29.5691C11.9165 29.4923 12.052 29.457 12.1868 29.471C12.3217 29.485 12.4449 29.5472 12.5294 29.6438C12.6138 29.7405 12.6526 29.8637 12.6372 29.9864C12.6218 30.1091 12.5535 30.2212 12.4472 30.298L7.63981 33.8297C7.55131 33.8914 7.44285 33.9248 7.33134 33.9245Z" fill="white"/>
<path d="M7.33133 21.3174C5.38759 21.3155 3.52407 20.6122 2.14964 19.3618C0.775207 18.1114 0.00212083 16.4161 0 14.6478V6.66967C4.09749e-08 4.90077 0.772405 3.20431 2.1473 1.9535C3.52219 0.702696 5.38694 0 7.33133 0C9.27572 0 11.1405 0.702696 12.5154 1.9535C13.8903 3.20431 14.6627 4.90077 14.6627 6.66967V14.6478C14.6605 16.4161 13.8874 18.1114 12.513 19.3618C11.1386 20.6122 9.27507 21.3155 7.33133 21.3174ZM7.33133 0.925736C5.65747 0.927665 4.05277 1.53345 2.86917 2.61023C1.68557 3.68701 1.01969 5.14688 1.01757 6.66967V14.6478C1.01757 16.1712 1.68277 17.6321 2.86683 18.7093C4.05089 19.7865 5.65682 20.3917 7.33133 20.3917C9.00584 20.3917 10.6118 19.7865 11.7958 18.7093C12.9799 17.6321 13.6451 16.1712 13.6451 14.6478V6.66967C13.643 5.14688 12.9771 3.68701 11.7935 2.61023C10.6099 1.53345 9.00519 0.927665 7.33133 0.925736Z" fill="white"/>
<path d="M7.33134 8.08014C7.06359 8.08014 6.80681 7.98338 6.61748 7.81114C6.42815 7.63889 6.32178 7.40529 6.32178 7.1617V4.97495C6.31966 4.85312 6.3442 4.73211 6.39398 4.619C6.44376 4.50588 6.51779 4.4029 6.61175 4.31607C6.70571 4.22923 6.81772 4.16028 6.94126 4.11321C7.0648 4.06615 7.19741 4.04192 7.33134 4.04193C7.46426 4.04193 7.59586 4.06581 7.71861 4.11219C7.84136 4.15857 7.95283 4.22655 8.04663 4.31222C8.14043 4.39789 8.21471 4.49957 8.26521 4.61142C8.31571 4.72327 8.34143 4.8431 8.3409 4.96401V7.15077C8.34249 7.2723 8.31755 7.3929 8.26753 7.5056C8.21751 7.61829 8.1434 7.72084 8.04949 7.80728C7.95559 7.89373 7.84376 7.96236 7.72048 8.0092C7.59721 8.05603 7.46494 8.08015 7.33134 8.08014Z" fill="white"/>
</svg>
