<svg width="13" height="12" viewBox="0 0 13 12" fill="none" xmlns="http://www.w3.org/2000/svg">
<path d="M13 9.1796H11.9124V10.9188H1.08761V9.1796H0V12H13V9.1796Z" fill="black"/>
<path d="M8.75927 7.33135L12.9022 3.65619C12.9195 3.64161 12.9334 3.62345 12.943 3.60298C12.9525 3.5825 12.9575 3.5602 12.9575 3.53763C12.9575 3.51507 12.9525 3.49277 12.943 3.47229C12.9334 3.45182 12.9195 3.43366 12.9022 3.41908L8.75927 0.0367484C8.73649 0.0182013 8.7089 0.00642653 8.67968 0.00279013C8.65047 -0.000846284 8.62081 0.00379938 8.59414 0.0161911C8.56746 0.0285828 8.54485 0.0482221 8.52892 0.072834C8.51298 0.097446 8.50436 0.126033 8.50406 0.155302V1.9751C8.50406 1.9751 2.51984 2.08298 2.51984 7.56135C2.51984 7.56135 2.99686 4.66152 8.50406 5.30883V7.21872C8.50544 7.24749 8.51483 7.27531 8.53119 7.29907C8.54756 7.32283 8.57024 7.34161 8.59672 7.35329C8.6232 7.36498 8.65242 7.36911 8.68112 7.36524C8.70983 7.36136 8.73688 7.34963 8.75927 7.33135Z" fill="black"/>
</svg>
